<?xml version="1.0" encoding="utf-8"?>
<!DOCTYPE svg PUBLIC "-//W3C//DTD SVG 1.1//EN"  "http://www.w3.org/Graphics/SVG/1.1/DTD/svg11.dtd">
<svg version="1.1" xmlns="http://www.w3.org/2000/svg" xmlns:xlink="http://www.w3.org/1999/xlink" font-family="Arial" font-size="13" width="754" height="436">
	<desc>UML diagram model</desc>
	<g id="_9AVmsWOxEDSGVqyqE-Kh8A">
		<defs>
			<linearGradient id="greyGradient" x1="0%" y1="0%" x2="0%" y2="100%" spreadMethod="pad">
				<stop offset="0%" stop-color="#FFFFFF" stop-opacity="1" />
				<stop offset="100%" stop-color="#EEEEEE" stop-opacity="1" />
				
			</linearGradient>
			<linearGradient id="packageGradient" x1="0%" y1="0%" x2="0%" y2="100%" spreadMethod="pad">
				<stop offset="0%" stop-color="#FFFFFF" stop-opacity="1" />
				<stop offset="100%" stop-color="#EFE9DE" stop-opacity="0.4" />
				
			</linearGradient>
			<linearGradient id="executionSpecificationGradient" x1="0%" y1="0%" x2="0%" y2="100%" spreadMethod="pad">
				<stop offset="0%" stop-color="#FFFFFF" stop-opacity="1" />
				<stop offset="100%" stop-color="#EFE9DE" stop-opacity="1" />
				
			</linearGradient>
			
		</defs>
		<g id="_GA194GOyEDSGVqyqE-Kh8A">
			<ellipse cx="409" cy="376" rx="10" ry="10" fill="#FFF" stroke="#888" stroke-width="1.0" />
			<ellipse cx="409" cy="376" rx="6" ry="6" fill="#4D4D4D" stroke-width="0.0" />
			
		</g>
		<g id="_HFmmgGOyEDSGVqyqE-Kh8A">
			<ellipse cx="59" cy="145" rx="7" ry="7" fill="#4D4D4D" stroke="#000" stroke-width="1.0" />
			
		</g>
		<g id="__QFmUWOyEDSGVqyqE-Kh8A">
			<rect x="114" y="20" width="590" height="290" rx="10" ry="10" fill="url(#packageGradient)" stroke="#c2b79f" stroke-width="1" />
			<text x="409" y="42" text-anchor="middle" font-style="normal" fill="#806221">Game Running</text>
			
		</g>
		<g id="_98vkkWOxEDSGVqyqE-Kh8A">
			<rect x="148" y="118" width="100" height="54" rx="10" ry="10" fill="url(#packageGradient)" stroke="#c2b79f" stroke-width="1" />
			<text x="198" y="140" text-anchor="middle" font-style="normal" fill="#806221">Menu</text>
			
		</g>
		<g id="_-P3U4WOxEDSGVqyqE-Kh8A">
			<rect x="292" y="61" width="390" height="239" rx="10" ry="10" fill="url(#packageGradient)" stroke="#c2b79f" stroke-width="1" />
			<text x="487" y="83" text-anchor="middle" font-style="normal" fill="#806221">World</text>
			
		</g>
		<g id="_-kVwEWOxEDSGVqyqE-Kh8A">
			<rect x="544" y="115" width="100" height="60" rx="10" ry="10" fill="url(#packageGradient)" stroke="#c2b79f" stroke-width="1" />
			<text x="594" y="137" text-anchor="middle" font-style="normal" fill="#806221">Pause</text>
			
		</g>
		<g id="_Ayr28WOyEDSGVqyqE-Kh8A">
			<rect x="362" y="230" width="130" height="60" rx="10" ry="10" fill="url(#packageGradient)" stroke="#c2b79f" stroke-width="1" />
			<text x="427" y="252" text-anchor="middle" font-style="normal" fill="#806221">KillScreen</text>
			
		</g>
		<g id="_lqnoAWOyEDSGVqyqE-Kh8A">
			<rect x="357" y="98" width="140" height="94" rx="10" ry="10" fill="url(#packageGradient)" stroke="#c2b79f" stroke-width="1" />
			<text x="427" y="120" text-anchor="middle" font-style="normal" fill="#806221">Playing</text>
			
		</g>
		<g id="_RUoJ0mOzEDSGVqyqE-Kh8A">
			<polyline fill="none" stroke-width="1" stroke="#000000" points="409,310 409,366" />
			<g transform="translate(409,366)">
				<g transform="rotate(-180)">
					<polyline fill="none" stroke-width="1" stroke="#000000" points="-4,8 0,0 4,8" />
					
				</g>
				
			</g>
			
		</g>
		<g id="_K7DOEmOyEDSGVqyqE-Kh8A">
			<polyline fill="none" stroke-width="1" stroke="#000000" points="68,145 148,145" />
			<g transform="translate(148,145)">
				<g transform="rotate(90)">
					<polyline fill="none" stroke-width="1" stroke="#000000" points="-4,8 0,0 4,8" />
					
				</g>
				
			</g>
			
		</g>
		<g id="_aNof8GO1EDSGVqyqE-Kh8A" transform="translate(465, 160)">
			<ellipse cx="11" cy="11" rx="11" ry="11" fill="#FFF" stroke="#888" stroke-width="1.0" />
			<text x="11" y="16" text-anchor="middle" font-style="normal" fill="black">H</text>
			
		</g>
		<g id="_0x8McmOyEDSGVqyqE-Kh8A">
			<polyline fill="none" stroke-width="1" stroke="#000000" points="248,145 357,145" />
			<g transform="translate(357,145)">
				<g transform="rotate(90)">
					<polyline fill="none" stroke-width="1" stroke="#000000" points="-4,8 0,0 4,8" />
					
				</g>
				
			</g>
			
		</g>
		<g id="_3DkQ0mOyEDSGVqyqE-Kh8A">
			<polyline fill="none" stroke-width="1" stroke="#000000" points="497,145 544,145" />
			<g transform="translate(544,145)">
				<g transform="rotate(90)">
					<polyline fill="none" stroke-width="1" stroke="#000000" points="-4,8 0,0 4,8" />
					
				</g>
				
			</g>
			
		</g>
		<g id="_6iwUgmOyEDSGVqyqE-Kh8A">
			<polyline fill="none" stroke-width="1" stroke="#000000" points="427,192 427,230" />
			<g transform="translate(427,230)">
				<g transform="rotate(-180)">
					<polyline fill="none" stroke-width="1" stroke="#000000" points="-4,8 0,0 4,8" />
					
				</g>
				
			</g>
			
		</g>
		<g id="_8eS0ImOyEDSGVqyqE-Kh8A">
			<polyline fill="none" stroke-width="1" stroke="#000000" points="427,230 427,192" />
			<g transform="translate(427,192)">
				<g transform="rotate(0)">
					<polyline fill="none" stroke-width="1" stroke="#000000" points="-4,8 0,0 4,8" />
					
				</g>
				
			</g>
			
		</g>
		<g id="_UjFC0mOzEDSGVqyqE-Kh8A">
			<polyline fill="none" stroke-width="1" stroke="#000000" points="362,260 196,260" />
			
		</g>
		<g id="_UjFC0mOzEDSGVqyqE-Kh8A">
			<polyline fill="none" stroke-width="1" stroke="#000000" points="196,260 197,172" />
			<g transform="translate(197,172)">
				<g transform="rotate(1)">
					<polyline fill="none" stroke-width="1" stroke="#000000" points="-4,8 0,0 4,8" />
					
				</g>
				
			</g>
			
		</g>
		<g id="_mhW7YmO1EDSGVqyqE-Kh8A">
			<polyline fill="none" stroke-width="1" stroke="#000000" points="544,156 487,168" />
			<g transform="translate(487,168)">
				<g transform="rotate(-102)">
					<polyline fill="none" stroke-width="1" stroke="#000000" points="-4,8 0,0 4,8" />
					
				</g>
				
			</g>
			
		</g>
		
	</g>
	
</svg>
