<?xml version="1.0" encoding="utf-8"?>
<!DOCTYPE svg PUBLIC "-//W3C//DTD SVG 1.1//EN"  "http://www.w3.org/Graphics/SVG/1.1/DTD/svg11.dtd">
<svg version="1.1" xmlns="http://www.w3.org/2000/svg" xmlns:xlink="http://www.w3.org/1999/xlink" font-family="Arial" font-size="13" width="750" height="436">
	<desc>UML diagram model</desc>
	<g id="_9AVmsWOxEDSGVqyqE-Kh8A">
		<defs>
			<linearGradient id="greyGradient" x1="0%" y1="0%" x2="0%" y2="100%" spreadMethod="pad">
				<stop offset="0%" stop-color="#FFFFFF" stop-opacity="1" />
				<stop offset="100%" stop-color="#EEEEEE" stop-opacity="1" />
				
			</linearGradient>
			<linearGradient id="packageGradient" x1="0%" y1="0%" x2="0%" y2="100%" spreadMethod="pad">
				<stop offset="0%" stop-color="#FFFFFF" stop-opacity="1" />
				<stop offset="100%" stop-color="#EFE9DE" stop-opacity="0.4" />
				
			</linearGradient>
			<linearGradient id="executionSpecificationGradient" x1="0%" y1="0%" x2="0%" y2="100%" spreadMethod="pad">
				<stop offset="0%" stop-color="#FFFFFF" stop-opacity="1" />
				<stop offset="100%" stop-color="#EFE9DE" stop-opacity="1" />
				
			</linearGradient>
			
		</defs>
		<g id="_GA194GOyEDSGVqyqE-Kh8A">
			<ellipse cx="405" cy="376" rx="10" ry="10" fill="#FFF" stroke="#888" stroke-width="1.0" />
			<ellipse cx="405" cy="376" rx="6" ry="6" fill="#4D4D4D" stroke-width="0.0" />
			
		</g>
		<g id="_HFmmgGOyEDSGVqyqE-Kh8A">
			<ellipse cx="59" cy="131" rx="7" ry="7" fill="#4D4D4D" stroke="#000" stroke-width="1.0" />
			
		</g>
		<g id="__QFmUWOyEDSGVqyqE-Kh8A">
			<rect x="110" y="20" width="590" height="274" rx="10" ry="10" fill="url(#packageGradient)" stroke="#c2b79f" stroke-width="1" />
			<text x="405" y="42" text-anchor="middle" font-style="normal" fill="#806221">Game Running</text>
			
		</g>
		<g id="_98vkkWOxEDSGVqyqE-Kh8A">
			<rect x="142" y="104" width="100" height="54" rx="10" ry="10" fill="url(#packageGradient)" stroke="#c2b79f" stroke-width="1" />
			<text x="192" y="126" text-anchor="middle" font-style="normal" fill="#806221">Menu</text>
			
		</g>
		<g id="_-P3U4WOxEDSGVqyqE-Kh8A">
			<rect x="288" y="61" width="390" height="220" rx="10" ry="10" fill="url(#packageGradient)" stroke="#c2b79f" stroke-width="1" />
			<text x="483" y="83" text-anchor="middle" font-style="normal" fill="#806221">World</text>
			
		</g>
		<g id="_-kVwEWOxEDSGVqyqE-Kh8A">
			<rect x="563" y="101" width="100" height="60" rx="10" ry="10" fill="url(#packageGradient)" stroke="#c2b79f" stroke-width="1" />
			<text x="613" y="123" text-anchor="middle" font-style="normal" fill="#806221">Pause</text>
			
		</g>
		<g id="_Ayr28WOyEDSGVqyqE-Kh8A">
			<rect x="358" y="206" width="130" height="60" rx="10" ry="10" fill="url(#packageGradient)" stroke="#c2b79f" stroke-width="1" />
			<text x="423" y="228" text-anchor="middle" font-style="normal" fill="#806221">KillScreen</text>
			
		</g>
		<g id="_lqnoAWOyEDSGVqyqE-Kh8A">
			<rect x="358" y="101" width="130" height="60" rx="10" ry="10" fill="url(#packageGradient)" stroke="#c2b79f" stroke-width="1" />
			<text x="423" y="123" text-anchor="middle" font-style="normal" fill="#806221">Playing</text>
			
		</g>
		<g id="_RUoJ0mOzEDSGVqyqE-Kh8A">
			<polyline fill="none" stroke-width="1" stroke="#000000" points="405,294 405,366" />
			<g transform="translate(405,366)">
				<g transform="rotate(-180)">
					<polyline fill="none" stroke-width="1" stroke="#000000" points="-4,8 0,0 4,8" />
					
				</g>
				
			</g>
			
		</g>
		<g id="_K7DOEmOyEDSGVqyqE-Kh8A">
			<polyline fill="none" stroke-width="1" stroke="#000000" points="68,131 142,131" />
			<g transform="translate(142,131)">
				<g transform="rotate(90)">
					<polyline fill="none" stroke-width="1" stroke="#000000" points="-4,8 0,0 4,8" />
					
				</g>
				
			</g>
			
		</g>
		<g id="_0x8McmOyEDSGVqyqE-Kh8A">
			<polyline fill="none" stroke-width="1" stroke="#000000" points="242,131 358,131" />
			<g transform="translate(358,131)">
				<g transform="rotate(90)">
					<polyline fill="none" stroke-width="1" stroke="#000000" points="-4,8 0,0 4,8" />
					
				</g>
				
			</g>
			
		</g>
		<g id="_3DkQ0mOyEDSGVqyqE-Kh8A">
			<polyline fill="none" stroke-width="1" stroke="#000000" points="488,131 563,131" />
			<g transform="translate(563,131)">
				<g transform="rotate(90)">
					<polyline fill="none" stroke-width="1" stroke="#000000" points="-4,8 0,0 4,8" />
					
				</g>
				
			</g>
			
		</g>
		<g id="_3tsL4mOyEDSGVqyqE-Kh8A">
			<polyline fill="none" stroke-width="1" stroke="#000000" points="563,131 488,131" />
			<g transform="translate(488,131)">
				<g transform="rotate(-90)">
					<polyline fill="none" stroke-width="1" stroke="#000000" points="-4,8 0,0 4,8" />
					
				</g>
				
			</g>
			
		</g>
		<g id="_6iwUgmOyEDSGVqyqE-Kh8A">
			<polyline fill="none" stroke-width="1" stroke="#000000" points="423,161 423,206" />
			<g transform="translate(423,206)">
				<g transform="rotate(-180)">
					<polyline fill="none" stroke-width="1" stroke="#000000" points="-4,8 0,0 4,8" />
					
				</g>
				
			</g>
			
		</g>
		<g id="_8eS0ImOyEDSGVqyqE-Kh8A">
			<polyline fill="none" stroke-width="1" stroke="#000000" points="423,206 423,161" />
			<g transform="translate(423,161)">
				<g transform="rotate(0)">
					<polyline fill="none" stroke-width="1" stroke="#000000" points="-4,8 0,0 4,8" />
					
				</g>
				
			</g>
			
		</g>
		<g id="_UjFC0mOzEDSGVqyqE-Kh8A">
			<polyline fill="none" stroke-width="1" stroke="#000000" points="358,236 192,236" />
			
		</g>
		<g id="_UjFC0mOzEDSGVqyqE-Kh8A">
			<polyline fill="none" stroke-width="1" stroke="#000000" points="192,236 192,158" />
			<g transform="translate(192,158)">
				<g transform="rotate(0)">
					<polyline fill="none" stroke-width="1" stroke="#000000" points="-4,8 0,0 4,8" />
					
				</g>
				
			</g>
			
		</g>
		
	</g>
	
</svg>
