<?xml version="1.0" encoding="utf-8"?>
<!DOCTYPE svg PUBLIC "-//W3C//DTD SVG 1.1//EN"  "http://www.w3.org/Graphics/SVG/1.1/DTD/svg11.dtd">
<svg version="1.1" xmlns="http://www.w3.org/2000/svg" xmlns:xlink="http://www.w3.org/1999/xlink" font-family="Arial" font-size="13" width="640" height="340">
	<desc>UML diagram model</desc>
	<g id="_flB60Wk5EDSZjodlHnvXzw">
		<defs>
			<linearGradient id="greyGradient" x1="0%" y1="0%" x2="0%" y2="100%" spreadMethod="pad">
				<stop offset="0%" stop-color="#FFFFFF" stop-opacity="1" />
				<stop offset="100%" stop-color="#EEEEEE" stop-opacity="1" />
				
			</linearGradient>
			<linearGradient id="packageGradient" x1="0%" y1="0%" x2="0%" y2="100%" spreadMethod="pad">
				<stop offset="0%" stop-color="#FFFFFF" stop-opacity="1" />
				<stop offset="100%" stop-color="#EFE9DE" stop-opacity="0.4" />
				
			</linearGradient>
			<linearGradient id="executionSpecificationGradient" x1="0%" y1="0%" x2="0%" y2="100%" spreadMethod="pad">
				<stop offset="0%" stop-color="#FFFFFF" stop-opacity="1" />
				<stop offset="100%" stop-color="#EFE9DE" stop-opacity="1" />
				
			</linearGradient>
			
		</defs>
		<g id="_yWICUWk5EDSZjodlHnvXzw">
			<rect x="50" y="20" width="540" height="270" rx="10" ry="10" fill="url(#packageGradient)" stroke="#c2b79f" stroke-width="1" />
			<text x="320" y="42" text-anchor="middle" font-style="normal" fill="#806221">Game Mode</text>
			
		</g>
		<g id="_gagKQGk5EDSZjodlHnvXzw">
			<ellipse cx="105" cy="128" rx="7" ry="7" fill="#4D4D4D" stroke="#000" stroke-width="1.0" />
			
		</g>
		<g id="_gt5AUWk5EDSZjodlHnvXzw">
			<rect x="162" y="98" width="100" height="60" rx="10" ry="10" fill="url(#packageGradient)" stroke="#c2b79f" stroke-width="1" />
			<text x="212" y="120" text-anchor="middle" font-style="normal" fill="#806221">Regular</text>
			
		</g>
		<g id="_o_GokWk5EDSZjodlHnvXzw">
			<rect x="400" y="98" width="100" height="60" rx="10" ry="10" fill="url(#packageGradient)" stroke="#c2b79f" stroke-width="1" />
			<text x="450" y="120" text-anchor="middle" font-style="normal" fill="#806221">Space</text>
			
		</g>
		<g id="_sha4wGk5EDSZjodlHnvXzw">
			<rect x="270" y="203" width="100" height="60" rx="10" ry="10" fill="url(#packageGradient)" stroke="#c2b79f" stroke-width="1" />
			<text x="320" y="225" text-anchor="middle" font-style="normal" fill="#806221">Underwater</text>
			
		</g>
		<g id="_ofxoQmk5EDSZjodlHnvXzw">
			<polyline fill="none" stroke-width="1" stroke="#000000" points="114,128 162,128" />
			<g transform="translate(162,128)">
				<g transform="rotate(90)">
					<polyline fill="none" stroke-width="1" stroke="#000000" points="-4,8 0,0 4,8" />
					
				</g>
				
			</g>
			
		</g>
		<g id="_uAwkkWk5EDSZjodlHnvXzw">
			<polyline fill="none" stroke-width="1" stroke="#000000" points="262,128 400,128" />
			<g transform="translate(400,128)">
				<g transform="rotate(90)">
					<polyline fill="none" stroke-width="1" stroke="#000000" points="-4,8 0,0 4,8" />
					
				</g>
				
			</g>
			
		</g>
		<g id="_uVbNAWk5EDSZjodlHnvXzw">
			<polyline fill="none" stroke-width="1" stroke="#000000" points="400,128 262,128" />
			<g transform="translate(262,128)">
				<g transform="rotate(-90)">
					<polyline fill="none" stroke-width="1" stroke="#000000" points="-4,8 0,0 4,8" />
					
				</g>
				
			</g>
			
		</g>
		<g id="_u4xKoWk5EDSZjodlHnvXzw">
			<polyline fill="none" stroke-width="1" stroke="#000000" points="357,203 412,158" />
			<g transform="translate(412,158)">
				<g transform="rotate(51)">
					<polyline fill="none" stroke-width="1" stroke="#000000" points="-4,8 0,0 4,8" />
					
				</g>
				
			</g>
			
		</g>
		<g id="_vUuG0mk5EDSZjodlHnvXzw">
			<polyline fill="none" stroke-width="1" stroke="#000000" points="412,158 357,203" />
			<g transform="translate(357,203)">
				<g transform="rotate(-129)">
					<polyline fill="none" stroke-width="1" stroke="#000000" points="-4,8 0,0 4,8" />
					
				</g>
				
			</g>
			
		</g>
		<g id="_vq5LImk5EDSZjodlHnvXzw">
			<polyline fill="none" stroke-width="1" stroke="#000000" points="289,203 242,158" />
			<g transform="translate(242,158)">
				<g transform="rotate(-46)">
					<polyline fill="none" stroke-width="1" stroke="#000000" points="-4,8 0,0 4,8" />
					
				</g>
				
			</g>
			
		</g>
		<g id="_wACUsGk5EDSZjodlHnvXzw">
			<polyline fill="none" stroke-width="1" stroke="#000000" points="242,158 289,203" />
			<g transform="translate(289,203)">
				<g transform="rotate(134)">
					<polyline fill="none" stroke-width="1" stroke="#000000" points="-4,8 0,0 4,8" />
					
				</g>
				
			</g>
			
		</g>
		
	</g>
	
</svg>
